<svg width="18619" height="4328" viewBox="0 0 18619 4328" fill="none" xmlns="http://www.w3.org/2000/svg">
<path d="M6756.98 3531.48V1175.22L7517.41 1171.85C8045.68 1168.48 8368.69 1427.67 8368.69 1888.83C8368.69 2262.46 8160.08 2491.36 7803.42 2568.78L8462.9 3531.48H7907.72L7406.38 2784.2C7372.73 2733.71 7345.81 2683.22 7315.53 2612.53H7228.05V3531.48H6756.98ZM7228.05 2188.41H7490.49C7746.21 2188.41 7890.9 2084.06 7890.9 1892.19C7890.9 1703.69 7746.21 1599.34 7490.49 1599.34H7228.05V2188.41Z" fill="#F4EEFF"/>
<path d="M9288.58 3575.23C8807.42 3575.23 8423.84 3167.94 8423.84 2663.03C8423.84 2158.11 8807.42 1744.09 9288.58 1744.09C9591.4 1744.09 9749.55 1868.63 9843.76 2057.13V1781.11H10294.6V3531.48H9853.85V3245.36C9759.64 3443.96 9601.5 3575.23 9288.58 3575.23ZM8878.08 2659.66C8878.08 2925.58 9073.24 3164.57 9362.6 3164.57C9662.06 3164.57 9853.85 2935.68 9853.85 2663.03C9853.85 2390.37 9662.06 2154.75 9362.6 2154.75C9073.24 2154.75 8878.08 2387.01 8878.08 2659.66Z" fill="#F4EEFF"/>
<path d="M10564.5 3531.48V1781.11H11012V2036.93C11102.9 1841.7 11277.8 1740.72 11547 1740.72C11923.9 1740.72 12213.2 2020.1 12213.2 2461.06V3531.48H11759V2572.14C11759 2269.19 11607.6 2137.92 11382.2 2137.92C11190.4 2137.92 11018.8 2269.19 11018.8 2572.14V3531.48H10564.5Z" fill="#F4EEFF"/>
<path d="M13624.5 3531.48L12921.3 2700.05V3531.48H12467V1074.23H12921.3V2487.99L13577.4 1781.11H14223.4L13399.1 2595.7L14226.8 3531.48H13624.5Z" fill="#F4EEFF"/>
<path d="M14603.5 3531.48V1599.34H13930.6V1175.22H15747.5V1599.34H15074.6V3531.48H14603.5Z" fill="#F4EEFF"/>
<path d="M15967.3 3531.48V1175.22H16552.8L17040.6 2215.34C17212.2 2578.87 17269.4 2730.35 17303.1 2844.79C17333.4 2730.35 17390.6 2578.87 17562.2 2215.34L18053.4 1175.22H18618.7V3531.48H18157.7V2578.87C18157.7 2259.1 18167.8 2100.89 18191.4 1895.56L17407.4 3531.48H17178.6L16394.6 1895.56C16418.2 2100.89 16428.3 2259.1 16428.3 2578.87V3531.48H15967.3Z" fill="#F4EEFF"/>
<path d="M6274.7 1453.85L6756.98 1175.3V1732.41L6274.7 1453.85Z" fill="#F4EEFF"/>
<path d="M12174.2 1244.41L12468.6 1074.36V1414.46L12174.2 1244.41Z" fill="#F4EEFF"/>
<path d="M3133.44 727.132C3161.26 755.305 3186.39 783.349 3208.8 811.262C3273.63 891.843 3333.66 983.871 3388.88 1087.35C3432.03 1168.1 3465.85 1247.23 3490.35 1324.74C3542.24 1488.85 3570.73 1651.54 3575.84 1812.84C3580.73 1967.68 3570.37 2118.24 3544.75 2264.52C3543.58 2271.31 3542.78 2275.49 3542.34 2277.04C3539.06 2288.69 3541 2289.62 3548.19 2279.84C3572.01 2247.44 3602.2 2220.37 3638.36 2198.37C3686.44 2169.11 3739.04 2146 3796.17 2129.04C3854.2 2111.77 3923.66 2098.2 3982.74 2092.04C4135.33 2076.02 4281.42 2075.96 4420.99 2091.84C4558.56 2107.46 4691.64 2132.43 4820.22 2166.75C4920.8 2193.58 5011.72 2221.54 5093 2250.62C5201.88 2289.53 5287.94 2318.57 5351.17 2337.74C5466.64 2372.66 5585.71 2398.44 5708.4 2415.05C5828.63 2431.35 5953.46 2432.97 6070.31 2423.23C6136.53 2417.78 6212.26 2406.94 6297.52 2390.71C6430.53 2365.33 6563.74 2324.24 6686.43 2265.36C6793.59 2213.86 6894.71 2152.13 6989.79 2080.16C6996.54 2075.05 7002.19 2070.05 7006.73 2065.16C7011.23 2060.23 7010.21 2058.43 7003.68 2059.77C6952.35 2070.03 6914.03 2077.71 6888.71 2082.82C6781.17 2104.5 6675.96 2114.15 6573.09 2111.77C6473.98 2109.48 6379.68 2092.6 6290.18 2061.14C6194.24 2027.45 6104.2 1966.94 6050.25 1877.56C6003.86 1800.57 5985.49 1718.1 5995.14 1630.17C5999.34 1591.95 6009.59 1550.06 6025.91 1504.49C6057.33 1416.81 6102.34 1332.53 6160.94 1251.65C6205.17 1190.67 6256.28 1138.72 6314.27 1095.78C6381.48 1046.06 6447.95 1007.48 6513.69 980.041C6592.89 946.978 6680.83 920.038 6777.51 899.222C6906.04 871.568 7038.04 852.808 7173.5 842.941C7350.98 830.001 7525.13 827.015 7695.94 833.983C7811.24 838.7 7931.35 846.922 8056.29 858.65C8202.05 872.369 8355.15 894.851 8515.58 926.097C8519.13 926.789 8520.55 925.361 8519.86 921.812C8519.73 921.034 8519.49 920.298 8519.15 919.605C8517.16 915.754 8514.28 913.265 8510.51 912.14C8338.75 860.771 8174.4 814.768 8017.47 774.131C8007.17 771.491 7992.76 768.137 7974.24 764.069C7958.14 760.52 7943.71 757.037 7930.94 753.618C7881.3 740.288 7831.62 728.344 7781.89 717.785C7602.29 679.658 7424.42 649.624 7248.28 627.682C7213.57 623.355 7133.84 615.976 7009.07 605.546C6805.06 588.539 6603.19 594.208 6403.46 622.554C6290.94 638.523 6171.43 670.591 6044.93 718.758C6042.98 719.494 6006.02 734.165 5934.05 762.771C5897.57 777.268 5860.81 791.03 5823.76 804.057C5595.08 884.465 5357.34 939.837 5110.53 970.174C5061.45 976.233 5020.73 979.63 4988.35 980.366C4951.18 981.232 4910.41 981.405 4866.05 980.885C4813.3 980.193 4754.78 974.351 4690.52 963.358C4582.24 944.728 4477.98 917.398 4383.92 867.998C4266.36 806.199 4175.34 730.573 4113.67 617.296C4090.95 575.556 4073.36 526.22 4095.37 480.325C4109.91 449.902 4131.46 426.532 4160.02 410.217C4185.08 395.893 4211.2 384.338 4238.38 375.552C4300.35 355.515 4367.34 344.675 4439.36 343.03C4439.97 343.019 4440.56 342.828 4441.07 342.481C4441.57 342.134 4441.96 341.646 4442.19 341.078C4442.42 340.51 4442.48 339.888 4442.35 339.288C4442.23 338.689 4441.93 338.139 4441.5 337.707C4440.42 336.625 4438.77 335.673 4436.57 334.851C4400.34 321.175 4348.82 303.475 4282 281.75C4237.68 267.339 4135.59 238.538 3975.73 195.348C3919.08 180.072 3877.18 169.188 3850.05 162.696C3477.38 73.5027 3101.24 20.6402 2721.61 4.10854C2621.81 -0.219131 2505.52 -1.12793 2372.75 1.38212C2220.97 4.23838 2066.75 16.3558 1910.09 37.7345C1901.52 38.9463 1895.4 40.0498 1891.72 41.0452C1877.83 44.8968 1878 48.7917 1892.24 52.7299C1947.07 67.8767 2003.07 83.1534 2060.24 98.5599C2086.51 105.657 2120.51 116.39 2162.23 130.758C2203.43 144.953 2236.88 156.983 2262.59 166.851C2350.92 200.779 2450.24 245.333 2560.55 300.511C2766.08 403.379 2948.81 536.087 3108.77 698.635C3111.06 700.972 3115.11 705.775 3120.91 713.046C3124.85 717.979 3129.02 722.675 3133.44 727.132Z" fill="#7032D5"/>
<path d="M425.716 707.463C418.575 721.225 413.533 730.768 410.59 736.091C396.049 762.749 379.43 799.037 360.735 844.953C345.587 882.258 332.43 919.822 321.265 957.646C250.03 1198.78 238.432 1442.63 286.47 1689.17C308.109 1800.14 339.875 1911.07 381.767 2021.99C424.179 2134.25 475.701 2237.42 536.333 2331.51C568.488 2381.36 603.045 2431.17 640.004 2480.94C666.62 2516.73 693.733 2550.42 721.344 2582.02C815.862 2690.25 915.703 2784.38 1020.87 2864.4C1159.36 2969.86 1313.27 3058.02 1482.62 3128.86C1506.55 3138.86 1531.85 3148.27 1558.5 3157.1C1599.18 3170.51 1624.83 3178.97 1635.43 3182.48C1637.54 3183.16 1639.8 3183.26 1641.95 3182.75C1644.1 3182.25 1646.07 3181.17 1647.63 3179.62C1664.9 3162.57 1678.81 3148.77 1689.37 3138.21C2645.5 2182.61 3136.57 1691.84 3162.58 1665.87C3240.87 1587.67 3281.08 1547.38 3283.2 1545C3292.24 1535 3301.14 1524.94 3309.88 1514.81C3310.87 1513.68 3311.57 1512.31 3311.9 1510.83C3312.23 1509.36 3312.18 1507.82 3311.76 1506.37C3272.29 1364.6 3213.67 1229.14 3135.9 1100C3068.65 988.351 3003.47 895.63 2940.38 821.844C2790.98 646.962 2622.68 502.483 2435.46 388.406C2350.72 336.777 2245.75 286.381 2120.55 237.219C1999.16 189.528 1878.8 157.979 1759.48 142.572C1676.78 131.861 1584.15 123.942 1499.75 124.721C1396.15 125.63 1291.61 137.834 1186.14 161.333C1140.49 171.503 1098.81 183.188 1061.12 196.387C964.218 230.403 870.846 274.978 781.002 330.112C745.298 352.053 711.239 376.418 678.824 403.206C586.47 479.417 507.25 571.358 441.166 679.03C438.353 683.618 433.203 693.095 425.716 707.463ZM375.016 1394.52C375.016 1292.4 415.587 1194.45 487.804 1122.23C560.021 1050.02 657.969 1009.45 760.099 1009.45C862.23 1009.45 960.177 1050.02 1032.39 1122.23C1104.61 1194.45 1145.18 1292.4 1145.18 1394.52C1145.18 1496.65 1104.61 1594.6 1032.39 1666.81C960.177 1739.03 862.23 1779.6 760.099 1779.6C657.969 1779.6 560.021 1739.03 487.804 1666.81C415.587 1594.6 375.016 1496.65 375.016 1394.52Z" fill="#B07FFF"/>
<path d="M760.101 1779.6C547.425 1779.6 375.017 1607.19 375.017 1394.52C375.017 1181.85 547.425 1009.45 760.101 1009.45C972.776 1009.45 1145.18 1181.85 1145.18 1394.52C1145.18 1607.19 972.776 1779.6 760.101 1779.6Z" fill="#FFFFF4"/>
<path d="M2123.47 3505.76C2085.47 3503.24 2028.54 3495.95 1952.68 3483.88C1775.46 3455.64 1592.65 3414.68 1433.41 3355.67C1363.48 3329.75 1278.65 3293.42 1178.94 3246.68C1028.16 3176.05 885.844 3085.28 751.986 2974.36C651.799 2891.36 566.045 2806.73 494.724 2720.48C432.707 2645.48 369.911 2556.2 306.337 2452.64C240.814 2345.92 186.177 2230.26 142.423 2105.67C113.514 2023.18 89.5374 1944.25 70.4954 1868.86C63.2246 1840.03 54.3748 1797.69 43.9448 1741.82C31.8704 1677.38 20.6401 1620.1 10.2537 1569.99C9.56128 1566.7 8.99854 1561.79 8.56567 1555.25C8.04639 1547.2 7.4187 1542.14 6.68286 1540.06C5.6875 1537.42 4.19482 1536.9 2.2041 1538.5C0.386475 1539.93 -0.306396 1544.22 0.126221 1551.36C1.35962 1573.36 3.82642 1604.72 3.1123 1631.53C0.212646 1745.43 -0.284912 1835.58 1.61938 1901.96C3.65332 1973.15 11.4866 2056.5 25.1189 2152.02C43.4253 2280.72 70.1924 2399.26 105.42 2507.62C167.177 2697.61 264.833 2867.14 398.387 3016.23C456.942 3081.62 520.3 3138.9 588.462 3188.06C745.516 3301.36 914.233 3385.62 1094.61 3440.84C1130.49 3451.83 1172.36 3462.82 1220.23 3473.82C1283.41 3488.31 1335.99 3498.87 1377.97 3505.5C1404.89 3509.74 1456.05 3516.23 1531.44 3524.97C1578.3 3530.38 1621.43 3533.99 1660.81 3535.81C1754.21 3540.14 1846.93 3540.7 1938.98 3537.5C1993.08 3535.59 2028.13 3533.97 2044.14 3532.63C2074.74 3529.99 2109.28 3524.28 2147.75 3515.49C2159.82 3512.72 2159.76 3510.28 2147.56 3508.16C2142.62 3507.29 2134.59 3506.49 2123.47 3505.76Z" fill="#7032D5"/>
<path d="M1812.13 3210.46C1845.67 3213.27 1872.48 3214.92 1892.57 3215.39C1936.25 3216.37 2008.05 3217.47 2069.53 3210.98C2097.05 3208.03 2120.2 3205.73 2128.2 3205.23L2269.14 3189.62C2278.71 3187.46 2288.4 3185.75 2298.23 3184.49C2309.7 3183.02 2319.3 3181.12 2327.05 3178.78C2359.55 3168.96 2397.66 3156.67 2441.37 3141.91C2454.26 3137.54 2470.41 3135.96 2489.8 3137.17C2509.53 3138.38 2537.53 3142.15 2573.8 3148.46C2602.01 3153.4 2629.43 3160.32 2656.05 3169.24C2743.9 3198.66 2820.15 3237.51 2884.81 3285.76C3042.95 3403.77 3183.81 3541.98 3307.42 3700.37C3372.66 3783.98 3429.07 3854.54 3483.53 3937.25C3538.93 4021.29 3574.74 4077.2 3590.97 4104.99C3615.16 4146.32 3648.05 4202.64 3689.64 4273.96C3697.89 4288.05 3712.75 4301.23 3728.72 4307.65C3775.29 4326.26 3824.32 4332.08 3875.82 4325.11C3937.45 4316.8 3994.68 4298.09 4047.53 4268.96C4080.85 4250.66 4108.63 4233.19 4130.88 4216.58C4200.21 4164.95 4263.09 4105.2 4319.53 4037.35C4366.96 3980.35 4403.27 3919.22 4428.45 3853.96C4461.24 3769.05 4470.2 3669.21 4433.52 3583.91C4430.27 3576.25 4421.21 3568.05 4406.32 3559.31C4287.87 3489.42 4227.24 3453.63 4224.42 3451.94C4065.96 3354.31 3919.9 3248.95 3780.46 3134.44C3714.81 3080.56 3657.08 3028.07 3607.26 2976.96C3571.56 2940.35 3523.67 2886.03 3463.6 2814.02C3402.45 2740.75 3355.58 2665.82 3322.99 2589.22C3310.37 2559.59 3278.7 2466.73 3278.7 2466.73C3278.7 2466.73 3272.98 2435.95 3272.2 2429.73C3272.2 2409.89 3278.7 2336.23 3278.7 2336.23C3281.91 2317.02 3287.7 2287.23 3296.31 2246.21C3300.3 2234.48 3303.2 2223.9 3305.01 2214.47C3307.09 2203.69 3308.93 2192.81 3310.53 2181.81C3313.91 2158.44 3316.78 2142.89 3319.16 2135.14C3321.55 2127.31 3324.75 2117.2 3328.77 2104.82C3330.94 2098.03 3332.78 2087.64 3334.29 2073.67C3335.76 2060.25 3338.4 2040.84 3342.21 2015.44C3345.07 1996.7 3347.34 1977.2 3349.03 1956.95C3356.56 1866.89 3355.37 1777.78 3345.46 1689.63C3345.38 1688.87 3344.98 1688.32 3344.28 1688.04C3343.58 1687.75 3342.61 1687.74 3341.46 1688.01C3340.32 1688.27 3339.04 1688.8 3337.76 1689.54C3336.48 1690.28 3335.24 1691.2 3334.16 1692.22C3269.81 1753.68 3232.13 1789.88 3221.14 1800.83C3057.08 1963.85 2708.02 2312.64 2173.98 2847.19C2145.93 2875.24 2125.42 2897.89 2103.67 2919.31C2026.64 2995.22 1950.41 3071.91 1874.97 3149.37C1871.94 3152.45 1861.32 3162.2 1843.1 3178.65C1833.1 3187.65 1822.78 3198.25 1812.13 3210.46Z" fill="#F4EEFF"/>
</svg>
