<svg width="18619" height="4329" viewBox="0 0 18619 4329" fill="none" xmlns="http://www.w3.org/2000/svg">
<path d="M6757.28 3522.24V1165.98L7517.71 1162.62C8045.97 1159.25 8368.99 1418.44 8368.99 1879.59C8368.99 2253.23 8160.37 2482.12 7803.71 2559.54L8463.2 3522.24H7908.02L7406.67 2774.97C7373.03 2724.48 7346.11 2673.99 7315.83 2603.3H7228.34V3522.24H6757.28ZM7228.34 2179.17H7490.79C7746.51 2179.17 7891.2 2074.83 7891.2 1882.96C7891.2 1694.46 7746.51 1590.11 7490.79 1590.11H7228.34V2179.17Z" fill="#160C32"/>
<path d="M9288.88 3566C8807.72 3566 8424.14 3158.7 8424.14 2653.79C8424.14 2148.88 8807.72 1734.85 9288.88 1734.85C9591.7 1734.85 9749.84 1859.4 9844.06 2047.9V1771.88H10294.9V3522.24H9854.15V3236.12C9759.94 3434.72 9601.8 3566 9288.88 3566ZM8878.38 2650.43C8878.38 2916.35 9073.53 3155.34 9362.9 3155.34C9662.36 3155.34 9854.15 2926.44 9854.15 2653.79C9854.15 2381.14 9662.36 2145.51 9362.9 2145.51C9073.53 2145.51 8878.38 2377.77 8878.38 2650.43Z" fill="#160C32"/>
<path d="M10564.8 3522.24V1771.88H11012.3V2027.7C11103.2 1832.47 11278.1 1731.48 11547.3 1731.48C11924.2 1731.48 12213.5 2010.87 12213.5 2451.83V3522.24H11759.3V2562.91C11759.3 2259.96 11607.9 2128.68 11382.5 2128.68C11190.7 2128.68 11019.1 2259.96 11019.1 2562.91V3522.24H10564.8Z" fill="#160C32"/>
<path d="M13624.8 3522.24L12921.6 2690.82V3522.24H12467.3V1065H12921.6V2478.76L13577.7 1771.88H14223.7L13399.4 2586.47L14227.1 3522.24H13624.8Z" fill="#160C32"/>
<path d="M14603.8 3522.24V1590.11H13930.9V1165.98H15747.8V1590.11H15074.9V3522.24H14603.8Z" fill="#160C32"/>
<path d="M15967.6 3522.24V1165.98H16553.1L17040.9 2206.1C17212.5 2569.64 17269.7 2721.11 17303.4 2835.56C17333.7 2721.11 17390.9 2569.64 17562.5 2206.1L18053.7 1165.98H18619V3522.24H18158V2569.64C18158 2249.86 18168.1 2091.66 18191.7 1886.32L17407.7 3522.24H17178.9L16394.9 1886.32C16418.5 2091.66 16428.6 2249.86 16428.6 2569.64V3522.24H15967.6Z" fill="#160C32"/>
<path d="M6275 1444.62L6757.28 1166.06V1723.17L6275 1444.62Z" fill="#160C32"/>
<path d="M12174.5 1235.17L12468.9 1065.13V1405.22L12174.5 1235.17Z" fill="#160C32"/>
<path d="M3133.74 727.898C3161.56 756.071 3186.69 784.114 3209.1 812.028C3273.93 892.609 3333.96 984.637 3389.18 1088.11C3432.33 1168.87 3466.15 1248 3490.65 1325.51C3542.54 1489.61 3571.03 1652.31 3576.14 1813.6C3581.03 1968.45 3570.67 2119.01 3545.04 2265.28C3543.88 2272.08 3543.08 2276.25 3542.64 2277.81C3539.35 2289.45 3541.3 2290.38 3548.49 2280.6C3572.31 2248.21 3602.5 2221.14 3638.65 2199.13C3686.74 2169.88 3739.34 2146.77 3796.47 2129.8C3854.5 2112.54 3923.96 2098.97 3983.03 2092.8C4135.63 2076.79 4281.71 2076.72 4421.28 2092.61C4558.86 2108.23 4691.94 2133.2 4820.52 2167.52C4921.1 2194.35 5012.02 2222.31 5093.3 2251.39C5202.18 2290.29 5288.24 2319.33 5351.47 2338.51C5466.93 2373.43 5586.01 2399.2 5708.7 2415.82C5828.93 2432.11 5953.76 2433.74 6070.61 2424C6136.83 2418.55 6212.56 2407.7 6297.82 2391.48C6430.83 2366.09 6564.04 2325 6686.73 2266.12C6793.89 2214.63 6895 2152.89 6990.08 2080.92C6996.84 2075.82 7002.48 2070.82 7007.03 2065.93C7011.53 2060.99 7010.51 2059.2 7003.98 2060.54C6952.65 2070.8 6914.33 2078.48 6889.01 2083.58C6781.47 2105.27 6676.26 2114.92 6573.39 2112.54C6474.28 2110.24 6379.98 2093.36 6290.48 2061.9C6194.54 2028.21 6104.5 1967.71 6050.55 1878.32C6004.16 1801.33 5985.79 1718.87 5995.44 1630.93C5999.64 1592.72 6009.89 1550.83 6026.21 1505.26C6057.63 1417.58 6102.64 1333.3 6161.23 1252.41C6205.46 1191.43 6256.57 1139.48 6314.57 1096.55C6381.78 1046.83 6448.25 1008.24 6513.99 980.807C6593.19 947.744 6681.13 920.804 6777.81 899.988C6906.34 872.334 7038.34 853.573 7173.8 843.706C7351.28 830.767 7525.43 827.781 7696.24 834.748C7811.53 839.465 7931.65 847.688 8056.59 859.416C8202.35 873.135 8355.45 895.617 8515.88 926.863C8519.42 927.555 8520.85 926.127 8520.16 922.578C8520.03 921.799 8519.79 921.063 8519.45 920.371C8517.46 916.519 8514.58 914.031 8510.81 912.906C8339.04 861.536 8174.7 815.533 8017.77 774.896C8007.47 772.257 7993.06 768.903 7974.54 764.835C7958.44 761.286 7944.01 757.802 7931.24 754.383C7881.6 741.054 7831.92 729.11 7782.19 718.55C7602.59 680.423 7424.72 650.389 7248.58 628.448C7213.87 624.12 7134.13 616.742 7009.37 606.312C6805.35 589.304 6603.49 594.974 6403.76 623.32C6291.24 639.289 6171.73 671.357 6045.23 719.524C6043.28 720.26 6006.32 734.93 5934.35 763.536C5897.87 778.034 5861.11 791.796 5824.06 804.822C5595.38 885.23 5357.64 940.603 5110.82 970.94C5061.75 976.999 5021.02 980.396 4988.65 981.132C4951.48 981.997 4910.71 982.17 4866.35 981.651C4813.59 980.958 4755.08 975.116 4690.82 964.124C4582.54 945.493 4478.28 918.164 4384.22 868.764C4266.65 806.964 4175.64 731.338 4113.97 618.062C4091.25 576.321 4073.66 526.986 4095.66 481.091C4110.21 450.667 4131.76 427.298 4160.32 410.983C4185.38 396.658 4211.5 385.103 4238.67 376.318C4300.65 356.281 4367.64 345.44 4439.66 343.796C4440.27 343.784 4440.86 343.593 4441.37 343.246C4441.87 342.899 4442.26 342.411 4442.49 341.844C4442.72 341.276 4442.77 340.653 4442.65 340.054C4442.53 339.454 4442.23 338.904 4441.8 338.473C4440.72 337.391 4439.07 336.439 4436.86 335.616C4400.64 321.941 4349.12 304.241 4282.3 282.516C4237.98 268.105 4135.89 239.304 3976.02 196.114C3919.37 180.837 3877.48 169.953 3850.35 163.462C3477.68 74.2683 3101.54 21.4059 2721.91 4.87416C2622.11 0.546494 2505.82 -0.362304 2373.05 2.14774C2221.27 5.00401 2067.05 17.1215 1910.39 38.5002C1901.82 39.7119 1895.7 40.8154 1892.02 41.8108C1878.13 45.6624 1878.3 49.5573 1892.54 53.4955C1947.37 68.6424 2003.37 83.919 2060.54 99.3255C2086.81 106.423 2120.8 117.156 2162.52 131.523C2203.72 145.718 2237.18 157.749 2262.88 167.616C2351.21 201.545 2450.54 246.098 2560.85 301.276C2766.38 404.145 2949.11 536.853 3109.07 699.4C3111.36 701.737 3115.41 706.541 3121.21 713.811C3125.15 718.745 3129.32 723.44 3133.74 727.898Z" fill="#B07FFF"/>
<path d="M426.015 708.229C418.874 721.991 413.832 731.533 410.889 736.856C396.347 763.515 379.729 799.802 361.033 845.719C345.886 883.023 332.729 920.588 321.564 958.412C250.329 1199.55 238.731 1443.39 286.769 1689.94C308.407 1800.9 340.174 1911.84 382.066 2022.76C424.478 2135.02 476 2238.19 536.631 2332.27C568.787 2382.13 603.344 2431.94 640.303 2481.71C666.919 2517.5 694.031 2551.19 721.643 2582.78C816.161 2691.02 916.002 2785.14 1021.17 2865.16C1159.65 2970.63 1313.57 3058.78 1482.92 3129.63C1506.85 3139.62 1532.14 3149.03 1558.8 3157.86C1599.48 3171.28 1625.13 3179.74 1635.73 3183.25C1637.84 3183.93 1640.1 3184.02 1642.25 3183.52C1644.4 3183.02 1646.37 3181.93 1647.93 3180.39C1665.2 3163.34 1679.11 3149.53 1689.67 3138.97C2645.8 2183.38 3136.87 1692.6 3162.88 1666.63C3241.17 1588.43 3281.38 1548.14 3283.5 1545.76C3292.54 1535.77 3301.44 1525.7 3310.18 1515.58C3311.17 1514.44 3311.87 1513.07 3312.2 1511.6C3312.52 1510.12 3312.48 1508.59 3312.06 1507.14C3272.59 1365.36 3213.97 1229.91 3136.2 1100.77C3068.95 989.116 3003.77 896.396 2940.67 822.609C2791.28 647.728 2622.97 503.249 2435.76 389.171C2351.02 337.542 2246.05 287.147 2120.85 237.984C1999.45 190.293 1879.1 158.745 1759.78 143.338C1677.08 132.627 1584.44 124.707 1500.05 125.486C1396.45 126.395 1291.91 138.599 1186.44 162.099C1140.79 172.269 1099.11 183.953 1061.41 197.153C964.517 231.168 871.145 275.743 781.301 330.878C745.597 352.819 711.538 377.184 679.123 403.972C586.769 480.182 507.549 572.124 441.465 679.796C438.652 684.383 433.502 693.861 426.015 708.229ZM375.315 1395.29C375.315 1293.16 415.885 1195.22 488.103 1123C560.32 1050.78 658.268 1010.21 760.398 1010.21C862.529 1010.21 960.476 1050.78 1032.69 1123C1104.91 1195.22 1145.48 1293.16 1145.48 1395.29C1145.48 1497.42 1104.91 1595.36 1032.69 1667.58C960.476 1739.8 862.529 1780.37 760.398 1780.37C658.268 1780.37 560.32 1739.8 488.103 1667.58C415.885 1595.36 375.315 1497.42 375.315 1395.29Z" fill="#7032D5"/>
<path d="M760.398 1780.37C547.722 1780.37 375.314 1607.96 375.314 1395.29C375.314 1182.62 547.722 1010.21 760.398 1010.21C973.073 1010.21 1145.48 1182.62 1145.48 1395.29C1145.48 1607.96 973.073 1780.37 760.398 1780.37Z" fill="#FFFFF4"/>
<path d="M2123.77 3506.52C2085.77 3504.01 2028.84 3496.72 1952.97 3484.64C1775.75 3456.41 1592.95 3415.44 1433.71 3356.44C1363.77 3330.51 1278.95 3294.18 1179.24 3247.44C1028.46 3176.82 886.141 3086.04 752.283 2975.13C652.096 2892.12 566.342 2807.49 495.02 2721.24C433.004 2646.24 370.208 2556.96 306.633 2453.4C241.111 2346.68 186.473 2231.03 142.72 2106.43C113.811 2023.95 89.8342 1945.01 70.7922 1869.62C63.5215 1840.8 54.6716 1798.45 44.2417 1742.58C32.1672 1678.15 20.937 1620.87 10.5505 1570.75C9.85815 1567.46 9.29541 1562.55 8.86255 1556.02C8.34326 1547.97 7.71558 1542.91 6.97974 1540.83C5.98438 1538.19 4.4917 1537.67 2.50098 1539.27C0.68335 1540.7 -0.00952148 1544.98 0.423096 1552.12C1.65649 1574.13 4.12329 1605.48 3.40918 1632.29C0.509521 1746.2 0.0119629 1836.34 1.91626 1902.73C3.9502 1973.92 11.7834 2057.27 25.4158 2152.78C43.7222 2281.49 70.4893 2400.02 105.717 2508.39C167.474 2698.37 265.13 2867.91 398.684 3017C457.239 3082.39 520.597 3139.66 588.759 3188.83C745.813 3302.12 914.53 3386.38 1094.91 3441.61C1130.79 3452.6 1172.66 3463.59 1220.52 3474.58C1283.71 3489.08 1336.29 3499.64 1378.27 3506.26C1405.19 3510.5 1456.34 3516.99 1531.73 3525.74C1578.6 3531.15 1621.73 3534.76 1661.11 3536.58C1754.5 3540.9 1847.23 3541.47 1939.28 3538.26C1993.37 3536.36 2028.43 3534.74 2044.44 3533.4C2075.04 3530.76 2109.57 3525.04 2148.05 3516.26C2160.12 3513.49 2160.06 3511.04 2147.85 3508.92C2142.92 3508.06 2134.89 3507.26 2123.77 3506.52Z" fill="#B07FFF"/>
<path d="M1812.43 3211.22C1845.97 3214.04 1872.78 3215.68 1892.86 3216.16C1936.55 3217.13 2008.35 3218.23 2069.82 3211.74C2097.35 3208.8 2120.5 3206.5 2128.5 3206L2269.44 3190.39C2279.01 3188.22 2288.7 3186.51 2298.52 3185.26C2309.99 3183.79 2319.6 3181.88 2327.35 3179.55C2359.85 3169.72 2397.95 3157.43 2441.66 3142.67C2454.56 3138.3 2470.7 3136.72 2490.09 3137.93C2509.83 3139.15 2537.83 3142.91 2574.09 3149.23C2602.31 3154.16 2629.73 3161.09 2656.34 3170C2744.2 3199.43 2820.45 3238.27 2885.11 3286.52C3043.24 3404.54 3184.11 3542.74 3307.71 3701.14C3372.95 3784.75 3429.37 3855.31 3483.83 3938.01C3539.23 4022.06 3575.04 4077.97 3591.27 4105.75C3615.46 4147.08 3648.35 4203.41 3689.94 4274.73C3698.18 4288.81 3713.05 4301.99 3729.02 4308.42C3775.59 4327.03 3824.62 4332.85 3876.12 4325.88C3937.75 4317.57 3994.98 4298.85 4047.82 4269.73C4081.15 4251.42 4108.93 4233.96 4131.18 4217.34C4200.51 4165.71 4263.39 4105.97 4319.82 4038.11C4367.25 3981.12 4403.56 3919.99 4428.75 3854.73C4461.53 3769.82 4470.49 3669.98 4433.82 3584.68C4430.57 3577.02 4421.5 3568.82 4406.62 3560.08C4288.16 3490.19 4227.53 3454.4 4224.72 3452.71C4066.26 3355.08 3920.2 3249.72 3780.76 3135.21C3715.11 3081.33 3657.37 3028.83 3607.56 2977.72C3571.86 2941.11 3523.97 2886.8 3463.9 2814.79C3402.75 2741.52 3355.88 2666.59 3323.29 2589.99C3310.66 2560.35 3279 2467.5 3279 2467.5C3279 2467.5 3273.28 2436.71 3272.5 2430.5C3272.5 2410.66 3279 2337 3279 2337C3282.2 2317.79 3288 2288 3296.61 2246.98C3300.59 2235.25 3303.49 2224.67 3305.31 2215.23C3307.39 2204.46 3309.23 2193.57 3310.83 2182.58C3314.2 2159.21 3317.08 2143.65 3319.46 2135.91C3321.84 2128.07 3325.04 2117.97 3329.07 2105.59C3331.23 2098.8 3333.07 2088.41 3334.59 2074.43C3336.06 2061.02 3338.7 2041.61 3342.51 2016.2C3345.36 1997.46 3347.64 1977.97 3349.32 1957.71C3356.85 1867.66 3355.66 1778.55 3345.75 1690.39C3345.68 1689.64 3345.28 1689.09 3344.57 1688.8C3343.87 1688.52 3342.9 1688.51 3341.76 1688.77C3340.62 1689.03 3339.34 1689.56 3338.06 1690.3C3336.78 1691.04 3335.53 1691.97 3334.46 1692.99C3270.1 1754.44 3232.43 1790.64 3221.44 1801.59C3057.37 1964.62 2708.32 2313.41 2174.27 2847.96C2146.23 2876 2125.72 2898.66 2103.97 2920.08C2026.94 2995.99 1950.7 3072.67 1875.27 3150.14C1872.24 3153.21 1861.62 3162.97 1843.4 3179.42C1833.4 3188.42 1823.08 3199.02 1812.43 3211.22Z" fill="#160C32"/>
</svg>
